<svg xmlns="http://www.w3.org/2000/svg" xmlns:xlink="http://www.w3.org/1999/xlink" width="462" zoomAndPan="magnify" viewBox="0 0 346.5 265.499997" height="354" preserveAspectRatio="xMidYMid meet" version="1.0"><defs><clipPath id="49dd414702"><path d="M 45.167969 0 L 319.152344 0 L 319.152344 183 L 45.167969 183 Z M 45.167969 0 " clip-rule="nonzero"/></clipPath></defs><g clip-path="url(#49dd414702)"><path fill="#f1f2f2" d="M 255.191406 54.828125 C 251.996094 54.828125 248.710938 55.101562 245.46875 55.605469 C 241.359375 24.03125 214.523438 0 182.160156 0 C 149.796875 0 122.957031 24.03125 118.851562 55.605469 C 115.5625 55.054688 112.324219 54.828125 109.128906 54.828125 C 73.890625 54.828125 45.226562 83.519531 45.226562 118.792969 C 45.226562 154.066406 73.890625 182.757812 109.128906 182.757812 L 255.191406 182.757812 C 290.429688 182.757812 319.09375 154.066406 319.09375 118.792969 C 319.09375 83.519531 290.429688 54.828125 255.191406 54.828125 Z M 255.191406 54.828125 " fill-opacity="1" fill-rule="nonzero"/></g><path fill="#6b71f2" d="M 113.691406 118.792969 L 250.628906 118.792969 C 251.375 118.792969 252.121094 118.832031 252.863281 118.902344 C 253.609375 118.976562 254.347656 119.085938 255.078125 119.234375 C 255.8125 119.378906 256.535156 119.558594 257.253906 119.777344 C 257.96875 119.996094 258.671875 120.246094 259.359375 120.53125 C 260.050781 120.820312 260.726562 121.136719 261.386719 121.492188 C 262.042969 121.84375 262.683594 122.226562 263.304688 122.644531 C 263.929688 123.058594 264.527344 123.503906 265.105469 123.980469 C 265.683594 124.453125 266.238281 124.957031 266.765625 125.484375 C 267.292969 126.015625 267.792969 126.566406 268.269531 127.144531 C 268.742188 127.722656 269.1875 128.324219 269.601562 128.945312 C 270.019531 129.570312 270.402344 130.210938 270.753906 130.871094 C 271.105469 131.527344 271.425781 132.203125 271.710938 132.894531 C 272 133.585938 272.25 134.289062 272.46875 135.007812 C 272.683594 135.722656 272.863281 136.449219 273.011719 137.179688 C 273.15625 137.914062 273.265625 138.65625 273.339844 139.398438 C 273.414062 140.144531 273.449219 140.890625 273.449219 141.636719 L 273.449219 242.15625 C 273.449219 242.902344 273.414062 243.652344 273.339844 244.394531 C 273.265625 245.140625 273.15625 245.878906 273.011719 246.613281 C 272.863281 247.347656 272.683594 248.070312 272.46875 248.789062 C 272.25 249.503906 272 250.207031 271.710938 250.898438 C 271.425781 251.589844 271.105469 252.265625 270.753906 252.925781 C 270.402344 253.585938 270.019531 254.226562 269.601562 254.847656 C 269.1875 255.46875 268.742188 256.070312 268.269531 256.648438 C 267.792969 257.226562 267.292969 257.78125 266.765625 258.308594 C 266.238281 258.839844 265.683594 259.339844 265.105469 259.816406 C 264.527344 260.289062 263.929688 260.734375 263.304688 261.152344 C 262.683594 261.566406 262.042969 261.949219 261.386719 262.304688 C 260.726562 262.65625 260.050781 262.976562 259.359375 263.261719 C 258.671875 263.546875 257.96875 263.800781 257.253906 264.015625 C 256.535156 264.234375 255.8125 264.414062 255.078125 264.5625 C 254.347656 264.707031 253.609375 264.816406 252.863281 264.890625 C 252.121094 264.964844 251.375 265 250.628906 265 L 113.691406 265 C 112.945312 265 112.199219 264.964844 111.457031 264.890625 C 110.710938 264.816406 109.972656 264.707031 109.238281 264.5625 C 108.507812 264.414062 107.78125 264.234375 107.066406 264.015625 C 106.351562 263.800781 105.648438 263.546875 104.957031 263.261719 C 104.269531 262.976562 103.59375 262.65625 102.933594 262.304688 C 102.273438 261.949219 101.632812 261.566406 101.011719 261.152344 C 100.390625 260.734375 99.792969 260.289062 99.214844 259.816406 C 98.636719 259.339844 98.082031 258.839844 97.554688 258.308594 C 97.027344 257.78125 96.523438 257.226562 96.050781 256.648438 C 95.574219 256.070312 95.132812 255.46875 94.714844 254.847656 C 94.300781 254.226562 93.917969 253.585938 93.5625 252.925781 C 93.210938 252.265625 92.894531 251.589844 92.605469 250.898438 C 92.320312 250.207031 92.070312 249.503906 91.851562 248.789062 C 91.636719 248.070312 91.453125 247.347656 91.308594 246.613281 C 91.164062 245.878906 91.054688 245.140625 90.980469 244.394531 C 90.90625 243.652344 90.871094 242.902344 90.871094 242.15625 L 90.871094 141.636719 C 90.871094 140.890625 90.90625 140.144531 90.980469 139.398438 C 91.054688 138.65625 91.164062 137.914062 91.308594 137.179688 C 91.453125 136.449219 91.636719 135.722656 91.851562 135.007812 C 92.070312 134.289062 92.320312 133.585938 92.605469 132.894531 C 92.894531 132.203125 93.210938 131.527344 93.5625 130.871094 C 93.917969 130.210938 94.300781 129.570312 94.714844 128.945312 C 95.132812 128.324219 95.574219 127.722656 96.050781 127.144531 C 96.523438 126.566406 97.027344 126.015625 97.554688 125.484375 C 98.082031 124.957031 98.636719 124.453125 99.214844 123.980469 C 99.792969 123.503906 100.390625 123.058594 101.011719 122.644531 C 101.632812 122.226562 102.273438 121.84375 102.933594 121.492188 C 103.59375 121.136719 104.269531 120.820312 104.957031 120.53125 C 105.648438 120.246094 106.351562 119.996094 107.066406 119.777344 C 107.78125 119.558594 108.507812 119.378906 109.238281 119.234375 C 109.972656 119.085938 110.710938 118.976562 111.457031 118.902344 C 112.199219 118.832031 112.945312 118.792969 113.691406 118.792969 Z M 113.691406 118.792969 " fill-opacity="1" fill-rule="nonzero"/><path fill="#ffffff" d="M 200.417969 159.914062 L 177.59375 159.914062 C 175.085938 159.914062 173.03125 161.96875 173.03125 164.484375 L 173.03125 219.3125 C 173.03125 221.824219 175.085938 223.878906 177.59375 223.878906 C 180.105469 223.878906 182.160156 221.824219 182.160156 219.3125 L 182.160156 196.464844 L 200.417969 196.464844 C 210.503906 196.464844 218.675781 188.289062 218.675781 178.191406 C 218.675781 168.09375 210.503906 159.914062 200.417969 159.914062 Z M 200.417969 187.328125 L 182.160156 187.328125 L 182.160156 169.050781 L 200.417969 169.050781 C 205.4375 169.050781 209.546875 173.164062 209.546875 178.191406 C 209.546875 183.214844 205.4375 187.328125 200.417969 187.328125 Z M 200.417969 187.328125 " fill-opacity="1" fill-rule="nonzero"/><path fill="#ffffff" d="M 232.367188 159.914062 C 229.859375 159.914062 227.804688 161.96875 227.804688 164.484375 L 227.804688 219.3125 C 227.804688 221.824219 229.859375 223.878906 232.367188 223.878906 C 234.878906 223.878906 236.933594 221.824219 236.933594 219.3125 L 236.933594 164.484375 C 236.933594 161.96875 234.878906 159.914062 232.367188 159.914062 Z M 232.367188 159.914062 " fill-opacity="1" fill-rule="nonzero"/><path fill="#ffffff" d="M 145.414062 163.019531 C 144.777344 161.148438 143.042969 159.914062 141.078125 159.914062 C 139.117188 159.914062 137.382812 161.195312 136.742188 163.019531 L 118.484375 217.847656 C 117.707031 220.226562 118.988281 222.828125 121.359375 223.605469 C 123.78125 224.429688 126.335938 223.101562 127.113281 220.726562 L 133.683594 200.988281 L 148.429688 200.988281 L 155 220.726562 C 155.640625 222.644531 157.421875 223.835938 159.335938 223.835938 C 159.792969 223.835938 160.296875 223.742188 160.796875 223.605469 C 163.171875 222.828125 164.496094 220.226562 163.671875 217.847656 Z M 136.789062 191.898438 L 141.125 178.921875 L 145.460938 191.898438 Z M 136.789062 191.898438 " fill-opacity="1" fill-rule="nonzero"/></svg>