<svg xmlns="http://www.w3.org/2000/svg" xmlns:xlink="http://www.w3.org/1999/xlink" width="462" zoomAndPan="magnify" viewBox="0 0 346.5 265.499997" height="354" preserveAspectRatio="xMidYMid meet" version="1.0"><defs><clipPath id="d4d83f5795"><path d="M 203 73 L 345.925781 73 L 345.925781 190 L 203 190 Z M 203 73 " clip-rule="nonzero"/></clipPath><clipPath id="1ecd0c515c"><path d="M 0.0742188 54 L 157 54 L 157 211 L 0.0742188 211 Z M 0.0742188 54 " clip-rule="nonzero"/></clipPath></defs><g clip-path="url(#d4d83f5795)"><path fill="#362701" d="M 231.972656 114.464844 C 225.738281 114.464844 221.089844 117.53125 221.089844 124.90625 C 221.089844 130.414062 224.152344 134.320312 231.632812 134.320312 C 237.976562 134.320312 242.289062 130.578125 242.289062 124.675781 C 242.289062 117.976562 238.4375 114.464844 231.972656 114.464844 Z M 219.503906 166.550781 C 218.027344 168.363281 216.554688 170.292969 216.554688 172.515625 C 216.554688 177.046875 222.332031 178.417969 230.273438 178.417969 C 236.847656 178.417969 245.804688 177.957031 245.804688 171.835938 C 245.804688 168.199219 241.496094 167.972656 236.050781 167.632812 L 219.546875 166.5 Z M 253.0625 114.800781 C 255.097656 117.417969 257.257812 121.042969 257.257812 126.265625 C 257.257812 138.855469 247.355469 146.234375 233.113281 146.234375 C 229.445312 146.234375 226.234375 145.773438 224.152344 145.210938 L 220.410156 151.175781 L 231.523438 151.855469 C 251.144531 153.105469 262.699219 153.675781 262.699219 168.757812 C 262.699219 181.8125 251.253906 189.175781 231.523438 189.175781 C 211.003906 189.175781 203.183594 183.953125 203.183594 174.953125 C 203.183594 169.847656 205.457031 167.121094 209.417969 163.375 C 205.679688 161.796875 204.429688 158.957031 204.429688 155.894531 C 204.429688 153.398438 205.679688 151.121094 207.722656 149.011719 L 214.746094 142.203125 C 209.191406 139.488281 204.992188 133.578125 204.992188 125.226562 C 204.992188 112.179688 213.609375 103.21875 230.957031 103.21875 C 235.835938 103.21875 238.785156 103.667969 241.394531 104.355469 L 263.5 104.355469 L 263.5 114 L 253.066406 114.792969 M 283.441406 94.179688 C 277.023438 94.179688 273.238281 90.4375 273.238281 83.960938 C 273.238281 77.488281 276.980469 73.980469 283.441406 73.980469 C 290.015625 73.980469 293.757812 77.503906 293.757812 83.960938 C 293.757812 90.421875 290.015625 94.179688 283.445312 94.179688 Z M 268.769531 162.371094 L 268.769531 153.417969 L 274.558594 152.625 C 276.144531 152.394531 276.375 152.054688 276.375 150.347656 L 276.375 116.996094 C 276.375 115.75 276.03125 114.957031 274.894531 114.613281 L 268.769531 112.457031 L 270.019531 103.273438 L 293.488281 103.273438 L 293.488281 150.367188 C 293.488281 152.183594 293.601562 152.40625 295.304688 152.640625 L 301.082031 153.433594 L 301.082031 162.382812 L 268.761719 162.382812 M 345.960938 157.980469 C 341.082031 160.363281 333.9375 162.566406 327.476562 162.566406 C 313.980469 162.566406 308.882812 157.128906 308.882812 144.296875 L 308.882812 114.566406 C 308.882812 113.886719 308.882812 113.429688 307.964844 113.429688 L 300.082031 113.429688 L 300.082031 103.335938 C 310.054688 102.234375 314.027344 97.207031 315.273438 84.835938 L 326.046875 84.835938 L 326.046875 100.949219 C 326.046875 101.738281 326.046875 102.085938 326.957031 102.085938 L 342.945312 102.085938 L 342.945312 113.429688 L 326.003906 113.429688 L 326.003906 140.5 C 326.003906 147.199219 327.59375 149.804688 333.703125 149.804688 C 336.878906 149.804688 340.121094 149.011719 342.886719 147.992188 L 345.949219 157.976562 " fill-opacity="1" fill-rule="nonzero"/></g><g clip-path="url(#1ecd0c515c)"><path fill="#f03c2e" d="M 153.636719 125.402344 L 85.667969 57.386719 C 81.757812 53.472656 75.410156 53.472656 71.492188 57.386719 L 57.386719 71.511719 L 75.28125 89.425781 C 79.445312 88.019531 84.214844 88.964844 87.519531 92.277344 C 88.3125 93.066406 88.976562 93.953125 89.515625 94.933594 C 90.058594 95.910156 90.453125 96.945312 90.703125 98.035156 C 90.953125 99.128906 91.046875 100.230469 90.988281 101.347656 C 90.929688 102.464844 90.714844 103.550781 90.347656 104.609375 L 107.601562 121.875 C 111.726562 120.4375 116.585938 121.371094 119.925781 124.703125 C 120.664062 125.441406 121.296875 126.265625 121.824219 127.171875 C 122.347656 128.082031 122.746094 129.039062 123.015625 130.054688 C 123.289062 131.066406 123.425781 132.097656 123.425781 133.144531 C 123.425781 134.191406 123.289062 135.222656 123.015625 136.234375 C 122.746094 137.25 122.347656 138.207031 121.824219 139.117188 C 121.300781 140.023438 120.667969 140.847656 119.925781 141.589844 C 119.183594 142.328125 118.359375 142.960938 117.453125 143.484375 C 116.546875 144.007812 115.585938 144.402344 114.574219 144.671875 C 113.5625 144.945312 112.53125 145.082031 111.484375 145.082031 C 110.4375 145.082031 109.410156 144.945312 108.398438 144.671875 C 107.386719 144.402344 106.429688 144.003906 105.523438 143.480469 C 104.617188 142.957031 103.792969 142.324219 103.054688 141.582031 C 99.550781 138.074219 98.6875 132.921875 100.460938 128.601562 L 84.414062 112.542969 L 84.414062 154.917969 C 85.515625 155.484375 86.621094 156.226562 87.570312 157.175781 C 92.226562 161.835938 92.226562 169.390625 87.570312 174.058594 C 87.015625 174.613281 86.414062 175.109375 85.761719 175.546875 C 85.109375 175.980469 84.421875 176.347656 83.699219 176.648438 C 82.976562 176.949219 82.230469 177.175781 81.460938 177.328125 C 80.695312 177.480469 79.917969 177.558594 79.136719 177.558594 C 78.351562 177.558594 77.578125 177.480469 76.808594 177.328125 C 76.039062 177.175781 75.292969 176.949219 74.570312 176.648438 C 73.847656 176.347656 73.160156 175.980469 72.507812 175.546875 C 71.859375 175.109375 71.253906 174.613281 70.703125 174.058594 C 66.042969 169.386719 66.042969 161.835938 70.703125 157.175781 C 71.832031 156.046875 73.132812 155.175781 74.609375 154.570312 L 74.609375 111.808594 C 73.234375 111.21875 71.855469 110.359375 70.703125 109.238281 C 69.863281 108.402344 69.167969 107.460938 68.609375 106.414062 C 68.054688 105.371094 67.660156 104.265625 67.433594 103.105469 C 67.203125 101.941406 67.148438 100.773438 67.269531 99.59375 C 67.390625 98.417969 67.675781 97.28125 68.132812 96.1875 L 50.488281 78.523438 L 3.855469 125.082031 C 3.390625 125.550781 2.976562 126.058594 2.609375 126.605469 C 2.246094 127.152344 1.9375 127.730469 1.6875 128.339844 C 1.4375 128.949219 1.246094 129.578125 1.117188 130.222656 C 0.992188 130.867188 0.925781 131.519531 0.925781 132.179688 C 0.925781 132.835938 0.992188 133.488281 1.117188 134.136719 C 1.246094 134.78125 1.4375 135.40625 1.6875 136.015625 C 1.9375 136.625 2.246094 137.203125 2.609375 137.75 C 2.976562 138.300781 3.390625 138.808594 3.855469 139.273438 L 71.824219 207.289062 C 75.734375 211.203125 82.082031 211.203125 86 207.289062 L 153.636719 139.59375 C 154.101562 139.125 154.515625 138.617188 154.878906 138.070312 C 155.242188 137.523438 155.550781 136.945312 155.800781 136.335938 C 156.054688 135.726562 156.242188 135.101562 156.371094 134.453125 C 156.5 133.808594 156.5625 133.15625 156.5625 132.496094 C 156.5625 131.839844 156.5 131.1875 156.371094 130.542969 C 156.242188 129.894531 156.054688 129.269531 155.800781 128.660156 C 155.550781 128.050781 155.242188 127.472656 154.878906 126.925781 C 154.515625 126.375 154.101562 125.871094 153.636719 125.402344 " fill-opacity="1" fill-rule="nonzero"/></g></svg>