<svg xmlns="http://www.w3.org/2000/svg" xmlns:xlink="http://www.w3.org/1999/xlink" width="462" zoomAndPan="magnify" viewBox="0 0 346.5 265.499997" height="354" preserveAspectRatio="xMidYMid meet" version="1.0"><defs><g/></defs><g fill="#00b5f8" fill-opacity="1"><g transform="translate(52.687985, 155.706759)"><g><path d="M 46.453125 0 L 46.453125 -17.328125 C 46.453125 -19.460938 46.535156 -21.660156 46.703125 -23.921875 C 46.867188 -26.179688 47.039062 -28.078125 47.21875 -29.609375 C 47.40625 -31.148438 47.523438 -32.128906 47.578125 -32.546875 L 47.296875 -32.546875 L 38.421875 0 L 26.34375 0 L 17.390625 -32.484375 L 17.109375 -32.484375 C 17.160156 -32.066406 17.289062 -31.097656 17.5 -29.578125 C 17.707031 -28.066406 17.90625 -26.179688 18.09375 -23.921875 C 18.28125 -21.660156 18.375 -19.460938 18.375 -17.328125 L 18.375 0 L 4.1875 0 L 4.1875 -48.0625 L 25.984375 -48.0625 L 33.25 -20.328125 L 33.53125 -20.328125 L 40.734375 -48.0625 L 61.75 -48.0625 L 61.75 0 Z M 46.453125 0 "/></g></g></g><g fill="#00b5f8" fill-opacity="1"><g transform="translate(118.640166, 155.706759)"><g><path d="M 18.234375 0 L 1.1875 -48.0625 L 17.671875 -48.0625 L 27.3125 -15.921875 L 27.59375 -15.921875 L 37.3125 -48.0625 L 53.09375 -48.0625 L 36.125 0 Z M 18.234375 0 "/></g></g></g><g fill="#00b5f8" fill-opacity="1"><g transform="translate(172.994832, 155.706759)"><g><path d="M 18.234375 0 L 1.1875 -48.0625 L 17.671875 -48.0625 L 27.3125 -15.921875 L 27.59375 -15.921875 L 37.3125 -48.0625 L 53.09375 -48.0625 L 36.125 0 Z M 18.234375 0 "/></g></g></g><g fill="#00b5f8" fill-opacity="1"><g transform="translate(227.349498, 155.706759)"><g><path d="M 46.453125 0 L 46.453125 -17.328125 C 46.453125 -19.460938 46.535156 -21.660156 46.703125 -23.921875 C 46.867188 -26.179688 47.039062 -28.078125 47.21875 -29.609375 C 47.40625 -31.148438 47.523438 -32.128906 47.578125 -32.546875 L 47.296875 -32.546875 L 38.421875 0 L 26.34375 0 L 17.390625 -32.484375 L 17.109375 -32.484375 C 17.160156 -32.066406 17.289062 -31.097656 17.5 -29.578125 C 17.707031 -28.066406 17.90625 -26.179688 18.09375 -23.921875 C 18.28125 -21.660156 18.375 -19.460938 18.375 -17.328125 L 18.375 0 L 4.1875 0 L 4.1875 -48.0625 L 25.984375 -48.0625 L 33.25 -20.328125 L 33.53125 -20.328125 L 40.734375 -48.0625 L 61.75 -48.0625 L 61.75 0 Z M 46.453125 0 "/></g></g></g></svg>