<svg xmlns="http://www.w3.org/2000/svg" xmlns:xlink="http://www.w3.org/1999/xlink" width="462" zoomAndPan="magnify" viewBox="0 0 346.5 265.499997" height="354" preserveAspectRatio="xMidYMid meet" version="1.0"><defs><clipPath id="0966f09c70"><path d="M 106 107 L 305.5 107 L 305.5 265 L 106 265 Z M 106 107 " clip-rule="nonzero"/></clipPath><clipPath id="c82d516da9"><path d="M 40.5 0 L 190 0 L 190 199 L 40.5 199 Z M 40.5 0 " clip-rule="nonzero"/></clipPath></defs><g clip-path="url(#0966f09c70)"><path fill="#38004d" d="M 297.21875 265 L 115.03125 265 C 114.488281 265 113.949219 264.949219 113.414062 264.839844 C 112.882812 264.734375 112.363281 264.578125 111.863281 264.371094 C 111.359375 264.164062 110.882812 263.90625 110.429688 263.605469 C 109.980469 263.304688 109.558594 262.960938 109.175781 262.574219 C 108.792969 262.191406 108.449219 261.773438 108.144531 261.320312 C 107.84375 260.867188 107.589844 260.390625 107.378906 259.890625 C 107.171875 259.386719 107.015625 258.867188 106.910156 258.335938 C 106.804688 257.800781 106.75 257.261719 106.75 256.71875 L 106.75 115.9375 C 106.75 115.394531 106.804688 114.855469 106.910156 114.324219 C 107.015625 113.789062 107.171875 113.269531 107.378906 112.769531 C 107.589844 112.265625 107.84375 111.789062 108.144531 111.335938 C 108.449219 110.886719 108.792969 110.464844 109.175781 110.082031 C 109.558594 109.699219 109.980469 109.355469 110.429688 109.050781 C 110.882812 108.75 111.359375 108.496094 111.863281 108.285156 C 112.363281 108.078125 112.882812 107.921875 113.414062 107.816406 C 113.949219 107.710938 114.488281 107.65625 115.03125 107.65625 L 297.21875 107.65625 C 297.761719 107.65625 298.300781 107.710938 298.835938 107.816406 C 299.367188 107.921875 299.886719 108.078125 300.390625 108.285156 C 300.890625 108.496094 301.367188 108.75 301.820312 109.050781 C 302.273438 109.355469 302.691406 109.699219 303.074219 110.082031 C 303.460938 110.464844 303.804688 110.886719 304.105469 111.335938 C 304.40625 111.789062 304.664062 112.265625 304.871094 112.769531 C 305.078125 113.269531 305.234375 113.789062 305.339844 114.324219 C 305.449219 114.855469 305.5 115.394531 305.5 115.9375 L 305.5 256.71875 C 305.5 257.261719 305.449219 257.800781 305.339844 258.335938 C 305.234375 258.867188 305.078125 259.386719 304.871094 259.890625 C 304.664062 260.390625 304.40625 260.867188 304.105469 261.320312 C 303.804688 261.773438 303.460938 262.191406 303.074219 262.574219 C 302.691406 262.960938 302.273438 263.304688 301.820312 263.605469 C 301.367188 263.90625 300.890625 264.164062 300.390625 264.371094 C 299.886719 264.578125 299.367188 264.734375 298.835938 264.839844 C 298.300781 264.949219 297.761719 265 297.21875 265 Z M 123.3125 248.4375 L 288.9375 248.4375 L 288.9375 124.21875 L 123.3125 124.21875 Z M 123.3125 248.4375 " fill-opacity="1" fill-rule="nonzero"/></g><g clip-path="url(#c82d516da9)"><path fill="#38004d" d="M 115.03125 198.75 L 73.625 198.75 C 72.539062 198.75 71.457031 198.699219 70.378906 198.589844 C 69.296875 198.484375 68.226562 198.324219 67.164062 198.113281 C 66.097656 197.902344 65.046875 197.640625 64.007812 197.324219 C 62.972656 197.007812 61.949219 196.644531 60.949219 196.230469 C 59.945312 195.8125 58.96875 195.351562 58.011719 194.839844 C 57.054688 194.328125 56.125 193.769531 55.222656 193.167969 C 54.320312 192.566406 53.449219 191.917969 52.609375 191.230469 C 51.773438 190.542969 50.96875 189.816406 50.203125 189.046875 C 49.433594 188.28125 48.707031 187.480469 48.019531 186.640625 C 47.332031 185.800781 46.683594 184.929688 46.082031 184.027344 C 45.480469 183.125 44.921875 182.199219 44.410156 181.242188 C 43.898438 180.285156 43.4375 179.304688 43.023438 178.300781 C 42.605469 177.300781 42.242188 176.28125 41.925781 175.242188 C 41.613281 174.203125 41.347656 173.152344 41.136719 172.089844 C 40.925781 171.023438 40.765625 169.953125 40.660156 168.871094 C 40.554688 167.792969 40.5 166.710938 40.5 165.625 L 40.5 33.125 C 40.5 32.039062 40.554688 30.957031 40.660156 29.878906 C 40.765625 28.796875 40.925781 27.726562 41.136719 26.664062 C 41.347656 25.597656 41.613281 24.546875 41.925781 23.507812 C 42.242188 22.472656 42.605469 21.449219 43.023438 20.449219 C 43.4375 19.445312 43.898438 18.46875 44.410156 17.511719 C 44.921875 16.554688 45.480469 15.625 46.082031 14.722656 C 46.683594 13.820312 47.332031 12.949219 48.019531 12.109375 C 48.707031 11.273438 49.433594 10.46875 50.203125 9.703125 C 50.96875 8.933594 51.773438 8.207031 52.609375 7.519531 C 53.449219 6.832031 54.320312 6.183594 55.222656 5.582031 C 56.125 4.980469 57.054688 4.421875 58.011719 3.910156 C 58.96875 3.398438 59.945312 2.9375 60.949219 2.523438 C 61.949219 2.105469 62.972656 1.742188 64.007812 1.425781 C 65.046875 1.113281 66.097656 0.847656 67.164062 0.636719 C 68.226562 0.425781 69.296875 0.265625 70.378906 0.160156 C 71.457031 0.0546875 72.539062 0 73.625 0 L 156.4375 0 C 157.523438 0 158.605469 0.0546875 159.683594 0.160156 C 160.765625 0.265625 161.835938 0.425781 162.898438 0.636719 C 163.964844 0.847656 165.015625 1.113281 166.054688 1.425781 C 167.089844 1.742188 168.113281 2.105469 169.113281 2.523438 C 170.117188 2.9375 171.097656 3.398438 172.054688 3.910156 C 173.007812 4.421875 173.9375 4.980469 174.839844 5.582031 C 175.742188 6.183594 176.613281 6.832031 177.453125 7.519531 C 178.289062 8.207031 179.09375 8.933594 179.859375 9.703125 C 180.628906 10.46875 181.355469 11.273438 182.042969 12.109375 C 182.730469 12.949219 183.378906 13.820312 183.980469 14.722656 C 184.582031 15.625 185.140625 16.554688 185.652344 17.511719 C 186.164062 18.46875 186.625 19.445312 187.042969 20.449219 C 187.457031 21.449219 187.820312 22.472656 188.136719 23.507812 C 188.453125 24.546875 188.714844 25.597656 188.925781 26.664062 C 189.136719 27.726562 189.296875 28.796875 189.402344 29.878906 C 189.511719 30.957031 189.5625 32.039062 189.5625 33.125 L 189.5625 82.8125 C 189.5625 83.355469 189.511719 83.894531 189.402344 84.429688 C 189.296875 84.960938 189.140625 85.480469 188.933594 85.980469 C 188.722656 86.484375 188.46875 86.960938 188.167969 87.414062 C 187.867188 87.867188 187.523438 88.285156 187.136719 88.667969 C 186.753906 89.054688 186.335938 89.394531 185.882812 89.699219 C 185.429688 90 184.953125 90.253906 184.449219 90.464844 C 183.949219 90.671875 183.429688 90.828125 182.898438 90.933594 C 182.363281 91.042969 181.824219 91.09375 181.28125 91.09375 C 180.738281 91.09375 180.199219 91.042969 179.667969 90.933594 C 179.132812 90.828125 178.613281 90.671875 178.113281 90.464844 C 177.609375 90.253906 177.132812 90 176.679688 89.699219 C 176.230469 89.394531 175.808594 89.054688 175.425781 88.667969 C 175.042969 88.285156 174.699219 87.867188 174.394531 87.414062 C 174.09375 86.960938 173.839844 86.484375 173.628906 85.980469 C 173.421875 85.480469 173.265625 84.960938 173.160156 84.429688 C 173.054688 83.894531 173 83.355469 173 82.8125 L 173 33.125 C 173 32.582031 172.972656 32.042969 172.921875 31.5 C 172.867188 30.960938 172.789062 30.425781 172.683594 29.894531 C 172.578125 29.363281 172.445312 28.835938 172.289062 28.316406 C 172.128906 27.796875 171.949219 27.289062 171.738281 26.785156 C 171.53125 26.285156 171.300781 25.796875 171.042969 25.316406 C 170.789062 24.839844 170.511719 24.375 170.210938 23.921875 C 169.90625 23.472656 169.585938 23.039062 169.242188 22.617188 C 168.898438 22.199219 168.53125 21.796875 168.148438 21.414062 C 167.765625 21.03125 167.363281 20.667969 166.945312 20.320312 C 166.527344 19.976562 166.089844 19.65625 165.640625 19.355469 C 165.1875 19.050781 164.722656 18.773438 164.246094 18.519531 C 163.765625 18.261719 163.277344 18.03125 162.777344 17.824219 C 162.273438 17.617188 161.765625 17.433594 161.246094 17.277344 C 160.726562 17.117188 160.199219 16.988281 159.667969 16.878906 C 159.136719 16.773438 158.601562 16.695312 158.0625 16.640625 C 157.523438 16.589844 156.980469 16.5625 156.4375 16.5625 L 73.625 16.5625 C 73.082031 16.5625 72.542969 16.589844 72 16.640625 C 71.460938 16.695312 70.925781 16.773438 70.394531 16.878906 C 69.863281 16.988281 69.335938 17.117188 68.816406 17.277344 C 68.296875 17.433594 67.789062 17.617188 67.285156 17.824219 C 66.785156 18.03125 66.296875 18.261719 65.816406 18.519531 C 65.339844 18.773438 64.875 19.050781 64.421875 19.355469 C 63.972656 19.65625 63.539062 19.976562 63.117188 20.320312 C 62.699219 20.667969 62.296875 21.03125 61.914062 21.414062 C 61.53125 21.796875 61.167969 22.199219 60.820312 22.617188 C 60.476562 23.039062 60.15625 23.472656 59.855469 23.921875 C 59.550781 24.375 59.273438 24.839844 59.019531 25.316406 C 58.761719 25.796875 58.53125 26.285156 58.324219 26.785156 C 58.117188 27.289062 57.933594 27.796875 57.777344 28.316406 C 57.617188 28.835938 57.488281 29.363281 57.378906 29.894531 C 57.273438 30.425781 57.195312 30.960938 57.140625 31.5 C 57.089844 32.042969 57.0625 32.582031 57.0625 33.125 L 57.0625 165.625 C 57.0625 166.167969 57.089844 166.710938 57.140625 167.25 C 57.195312 167.789062 57.273438 168.324219 57.378906 168.855469 C 57.488281 169.390625 57.617188 169.914062 57.777344 170.433594 C 57.933594 170.953125 58.117188 171.460938 58.324219 171.964844 C 58.53125 172.464844 58.761719 172.953125 59.019531 173.433594 C 59.273438 173.910156 59.550781 174.375 59.855469 174.828125 C 60.15625 175.277344 60.476562 175.714844 60.820312 176.132812 C 61.167969 176.550781 61.53125 176.953125 61.914062 177.335938 C 62.296875 177.71875 62.699219 178.085938 63.117188 178.429688 C 63.539062 178.773438 63.972656 179.09375 64.421875 179.398438 C 64.875 179.699219 65.339844 179.976562 65.816406 180.234375 C 66.296875 180.488281 66.785156 180.71875 67.285156 180.925781 C 67.789062 181.136719 68.296875 181.316406 68.816406 181.476562 C 69.335938 181.632812 69.863281 181.765625 70.394531 181.871094 C 70.925781 181.976562 71.460938 182.054688 72 182.109375 C 72.542969 182.160156 73.082031 182.1875 73.625 182.1875 L 115.03125 182.1875 C 115.574219 182.1875 116.113281 182.242188 116.648438 182.347656 C 117.179688 182.453125 117.699219 182.609375 118.199219 182.820312 C 118.703125 183.027344 119.179688 183.28125 119.632812 183.582031 C 120.085938 183.886719 120.503906 184.230469 120.886719 184.613281 C 121.273438 185 121.613281 185.417969 121.917969 185.867188 C 122.21875 186.320312 122.472656 186.796875 122.683594 187.300781 C 122.890625 187.800781 123.046875 188.320312 123.152344 188.855469 C 123.257812 189.386719 123.3125 189.925781 123.3125 190.46875 C 123.3125 191.011719 123.257812 191.550781 123.152344 192.085938 C 123.046875 192.617188 122.890625 193.136719 122.683594 193.636719 C 122.472656 194.140625 122.21875 194.617188 121.917969 195.070312 C 121.613281 195.523438 121.273438 195.941406 120.886719 196.324219 C 120.503906 196.710938 120.085938 197.054688 119.632812 197.355469 C 119.179688 197.65625 118.703125 197.914062 118.199219 198.121094 C 117.699219 198.328125 117.179688 198.484375 116.648438 198.589844 C 116.113281 198.699219 115.574219 198.75 115.03125 198.75 Z M 115.03125 198.75 " fill-opacity="1" fill-rule="nonzero"/></g><path fill="#38004d" d="M 98.46875 91.09375 C 97.65625 91.09375 96.84375 91.054688 96.035156 90.972656 C 95.222656 90.894531 94.421875 90.777344 93.621094 90.617188 C 92.824219 90.457031 92.035156 90.261719 91.257812 90.023438 C 90.480469 89.789062 89.714844 89.515625 88.960938 89.203125 C 88.210938 88.890625 87.476562 88.542969 86.757812 88.160156 C 86.039062 87.777344 85.34375 87.359375 84.667969 86.90625 C 83.988281 86.453125 83.335938 85.972656 82.707031 85.453125 C 82.078125 84.9375 81.476562 84.394531 80.902344 83.816406 C 80.328125 83.242188 79.78125 82.640625 79.265625 82.011719 C 78.75 81.382812 78.265625 80.730469 77.8125 80.050781 C 77.359375 79.375 76.941406 78.679688 76.558594 77.960938 C 76.175781 77.242188 75.828125 76.507812 75.515625 75.757812 C 75.203125 75.003906 74.929688 74.242188 74.695312 73.460938 C 74.457031 72.683594 74.261719 71.894531 74.101562 71.097656 C 73.945312 70.300781 73.824219 69.496094 73.746094 68.683594 C 73.664062 67.875 73.625 67.0625 73.625 66.25 L 73.625 41.40625 C 73.625 40.863281 73.679688 40.324219 73.785156 39.789062 C 73.890625 39.257812 74.046875 38.738281 74.253906 38.238281 C 74.464844 37.734375 74.71875 37.257812 75.019531 36.804688 C 75.324219 36.351562 75.667969 35.933594 76.050781 35.550781 C 76.433594 35.167969 76.851562 34.824219 77.304688 34.519531 C 77.757812 34.21875 78.234375 33.964844 78.738281 33.753906 C 79.238281 33.546875 79.757812 33.390625 80.289062 33.285156 C 80.824219 33.179688 81.363281 33.125 81.90625 33.125 C 82.449219 33.125 82.988281 33.179688 83.523438 33.285156 C 84.054688 33.390625 84.574219 33.546875 85.074219 33.753906 C 85.578125 33.964844 86.054688 34.21875 86.507812 34.519531 C 86.960938 34.824219 87.378906 35.167969 87.761719 35.550781 C 88.148438 35.933594 88.488281 36.351562 88.792969 36.804688 C 89.09375 37.257812 89.347656 37.734375 89.558594 38.238281 C 89.765625 38.738281 89.921875 39.257812 90.027344 39.789062 C 90.132812 40.324219 90.1875 40.863281 90.1875 41.40625 L 90.1875 66.25 C 90.1875 66.792969 90.242188 67.332031 90.347656 67.867188 C 90.453125 68.398438 90.609375 68.917969 90.816406 69.417969 C 91.027344 69.921875 91.28125 70.398438 91.582031 70.851562 C 91.886719 71.304688 92.230469 71.722656 92.613281 72.105469 C 92.996094 72.492188 93.414062 72.832031 93.867188 73.136719 C 94.320312 73.4375 94.796875 73.691406 95.300781 73.902344 C 95.800781 74.109375 96.320312 74.265625 96.851562 74.371094 C 97.386719 74.476562 97.925781 74.53125 98.46875 74.53125 C 99.011719 74.53125 99.550781 74.476562 100.085938 74.371094 C 100.617188 74.265625 101.136719 74.109375 101.636719 73.902344 C 102.140625 73.691406 102.617188 73.4375 103.070312 73.136719 C 103.523438 72.832031 103.941406 72.492188 104.324219 72.105469 C 104.710938 71.722656 105.050781 71.304688 105.355469 70.851562 C 105.65625 70.398438 105.910156 69.921875 106.121094 69.417969 C 106.328125 68.917969 106.484375 68.398438 106.589844 67.867188 C 106.695312 67.332031 106.75 66.792969 106.75 66.25 L 106.75 41.40625 C 106.75 40.863281 106.804688 40.324219 106.910156 39.789062 C 107.015625 39.257812 107.171875 38.738281 107.378906 38.238281 C 107.589844 37.734375 107.84375 37.257812 108.144531 36.804688 C 108.449219 36.351562 108.792969 35.933594 109.175781 35.550781 C 109.558594 35.167969 109.980469 34.824219 110.429688 34.519531 C 110.882812 34.21875 111.359375 33.964844 111.863281 33.753906 C 112.363281 33.546875 112.882812 33.390625 113.414062 33.285156 C 113.949219 33.179688 114.488281 33.125 115.03125 33.125 C 115.574219 33.125 116.113281 33.179688 116.648438 33.285156 C 117.179688 33.390625 117.699219 33.546875 118.199219 33.753906 C 118.703125 33.964844 119.179688 34.21875 119.632812 34.519531 C 120.085938 34.824219 120.503906 35.167969 120.886719 35.550781 C 121.273438 35.933594 121.613281 36.351562 121.917969 36.804688 C 122.21875 37.257812 122.472656 37.734375 122.683594 38.238281 C 122.890625 38.738281 123.046875 39.257812 123.152344 39.789062 C 123.257812 40.324219 123.3125 40.863281 123.3125 41.40625 L 123.3125 66.25 C 123.3125 67.0625 123.273438 67.875 123.191406 68.683594 C 123.113281 69.496094 122.996094 70.300781 122.835938 71.097656 C 122.675781 71.894531 122.480469 72.683594 122.242188 73.460938 C 122.007812 74.242188 121.734375 75.003906 121.421875 75.757812 C 121.109375 76.507812 120.761719 77.242188 120.378906 77.960938 C 119.996094 78.679688 119.578125 79.375 119.125 80.050781 C 118.671875 80.730469 118.191406 81.382812 117.671875 82.011719 C 117.15625 82.640625 116.613281 83.242188 116.035156 83.816406 C 115.460938 84.394531 114.859375 84.9375 114.230469 85.453125 C 113.601562 85.972656 112.949219 86.453125 112.269531 86.90625 C 111.59375 87.359375 110.898438 87.777344 110.179688 88.160156 C 109.460938 88.542969 108.726562 88.890625 107.976562 89.203125 C 107.222656 89.515625 106.460938 89.789062 105.679688 90.023438 C 104.902344 90.261719 104.113281 90.457031 103.316406 90.617188 C 102.519531 90.777344 101.714844 90.894531 100.902344 90.972656 C 100.09375 91.054688 99.28125 91.09375 98.46875 91.09375 Z M 98.46875 91.09375 " fill-opacity="1" fill-rule="nonzero"/><path fill="#9f85ec" d="M 164.71875 198.75 C 163.90625 198.75 163.09375 198.710938 162.285156 198.632812 C 161.472656 198.550781 160.671875 198.433594 159.871094 198.273438 C 159.074219 198.113281 158.285156 197.917969 157.507812 197.679688 C 156.730469 197.445312 155.964844 197.171875 155.210938 196.859375 C 154.460938 196.546875 153.726562 196.199219 153.007812 195.816406 C 152.289062 195.433594 151.59375 195.015625 150.917969 194.5625 C 150.238281 194.113281 149.585938 193.628906 148.957031 193.113281 C 148.328125 192.59375 147.726562 192.050781 147.152344 191.472656 C 146.578125 190.898438 146.03125 190.296875 145.515625 189.667969 C 145 189.039062 144.515625 188.386719 144.0625 187.710938 C 143.609375 187.03125 143.191406 186.335938 142.808594 185.617188 C 142.425781 184.902344 142.078125 184.164062 141.765625 183.414062 C 141.457031 182.664062 141.179688 181.898438 140.945312 181.117188 C 140.707031 180.339844 140.511719 179.550781 140.351562 178.753906 C 140.195312 177.957031 140.074219 177.152344 139.996094 176.34375 C 139.914062 175.53125 139.875 174.71875 139.875 173.90625 L 139.875 149.0625 C 139.875 148.519531 139.929688 147.980469 140.035156 147.449219 C 140.140625 146.914062 140.296875 146.394531 140.503906 145.894531 C 140.714844 145.390625 140.96875 144.914062 141.269531 144.460938 C 141.574219 144.011719 141.917969 143.589844 142.300781 143.207031 C 142.683594 142.824219 143.105469 142.480469 143.554688 142.175781 C 144.007812 141.875 144.484375 141.621094 144.988281 141.410156 C 145.488281 141.203125 146.007812 141.046875 146.542969 140.941406 C 147.074219 140.835938 147.613281 140.78125 148.15625 140.78125 C 148.699219 140.78125 149.238281 140.835938 149.773438 140.941406 C 150.304688 141.046875 150.824219 141.203125 151.324219 141.410156 C 151.828125 141.621094 152.304688 141.875 152.757812 142.175781 C 153.210938 142.480469 153.628906 142.824219 154.011719 143.207031 C 154.398438 143.589844 154.738281 144.011719 155.042969 144.460938 C 155.34375 144.914062 155.597656 145.390625 155.808594 145.894531 C 156.015625 146.394531 156.171875 146.914062 156.277344 147.449219 C 156.386719 147.980469 156.4375 148.519531 156.4375 149.0625 L 156.4375 173.90625 C 156.4375 174.449219 156.492188 174.988281 156.597656 175.523438 C 156.703125 176.054688 156.859375 176.574219 157.066406 177.074219 C 157.277344 177.578125 157.53125 178.054688 157.832031 178.507812 C 158.136719 178.960938 158.480469 179.378906 158.863281 179.761719 C 159.246094 180.148438 159.667969 180.492188 160.117188 180.792969 C 160.570312 181.09375 161.046875 181.351562 161.550781 181.558594 C 162.050781 181.765625 162.570312 181.921875 163.105469 182.027344 C 163.636719 182.136719 164.175781 182.1875 164.71875 182.1875 C 165.261719 182.1875 165.800781 182.136719 166.335938 182.027344 C 166.867188 181.921875 167.386719 181.765625 167.886719 181.558594 C 168.390625 181.351562 168.867188 181.09375 169.320312 180.792969 C 169.773438 180.492188 170.191406 180.148438 170.574219 179.761719 C 170.960938 179.378906 171.300781 178.960938 171.605469 178.507812 C 171.90625 178.054688 172.160156 177.578125 172.371094 177.074219 C 172.578125 176.574219 172.734375 176.054688 172.839844 175.523438 C 172.949219 174.988281 173 174.449219 173 173.90625 L 173 149.0625 C 173 148.519531 173.054688 147.980469 173.160156 147.449219 C 173.265625 146.914062 173.421875 146.394531 173.628906 145.894531 C 173.839844 145.390625 174.09375 144.914062 174.394531 144.460938 C 174.699219 144.011719 175.042969 143.589844 175.425781 143.207031 C 175.808594 142.824219 176.230469 142.480469 176.679688 142.175781 C 177.132812 141.875 177.609375 141.621094 178.113281 141.410156 C 178.613281 141.203125 179.132812 141.046875 179.667969 140.941406 C 180.199219 140.835938 180.738281 140.78125 181.28125 140.78125 C 181.824219 140.78125 182.363281 140.835938 182.898438 140.941406 C 183.429688 141.046875 183.949219 141.203125 184.449219 141.410156 C 184.953125 141.621094 185.429688 141.875 185.882812 142.175781 C 186.335938 142.480469 186.753906 142.824219 187.136719 143.207031 C 187.523438 143.589844 187.867188 144.011719 188.167969 144.460938 C 188.46875 144.914062 188.722656 145.390625 188.933594 145.894531 C 189.140625 146.394531 189.296875 146.914062 189.402344 147.449219 C 189.511719 147.980469 189.5625 148.519531 189.5625 149.0625 L 189.5625 173.90625 C 189.5625 174.71875 189.523438 175.53125 189.445312 176.34375 C 189.363281 177.152344 189.246094 177.957031 189.085938 178.753906 C 188.925781 179.550781 188.730469 180.339844 188.492188 181.117188 C 188.257812 181.898438 187.984375 182.664062 187.671875 183.414062 C 187.359375 184.164062 187.011719 184.902344 186.628906 185.617188 C 186.246094 186.335938 185.828125 187.03125 185.375 187.710938 C 184.925781 188.386719 184.441406 189.039062 183.921875 189.667969 C 183.40625 190.296875 182.863281 190.898438 182.285156 191.472656 C 181.710938 192.050781 181.109375 192.59375 180.480469 193.113281 C 179.851562 193.628906 179.199219 194.113281 178.523438 194.5625 C 177.84375 195.015625 177.148438 195.433594 176.429688 195.816406 C 175.710938 196.199219 174.976562 196.546875 174.226562 196.859375 C 173.476562 197.171875 172.710938 197.445312 171.929688 197.679688 C 171.152344 197.917969 170.363281 198.113281 169.566406 198.273438 C 168.769531 198.433594 167.964844 198.550781 167.15625 198.632812 C 166.34375 198.710938 165.53125 198.75 164.71875 198.75 Z M 164.71875 198.75 " fill-opacity="1" fill-rule="nonzero"/><path fill="#38004d" d="M 148.15625 91.09375 C 147.613281 91.09375 147.074219 91.042969 146.542969 90.933594 C 146.007812 90.828125 145.488281 90.671875 144.988281 90.464844 C 144.484375 90.253906 144.007812 90 143.554688 89.699219 C 143.105469 89.394531 142.683594 89.054688 142.300781 88.667969 C 141.917969 88.285156 141.574219 87.867188 141.269531 87.414062 C 140.96875 86.960938 140.714844 86.484375 140.503906 85.980469 C 140.296875 85.480469 140.140625 84.960938 140.035156 84.429688 C 139.929688 83.894531 139.875 83.355469 139.875 82.8125 L 139.875 41.40625 C 139.875 40.863281 139.929688 40.324219 140.035156 39.789062 C 140.140625 39.257812 140.296875 38.738281 140.503906 38.238281 C 140.714844 37.734375 140.96875 37.257812 141.269531 36.804688 C 141.574219 36.351562 141.917969 35.933594 142.300781 35.550781 C 142.683594 35.167969 143.105469 34.824219 143.554688 34.519531 C 144.007812 34.21875 144.484375 33.964844 144.988281 33.753906 C 145.488281 33.546875 146.007812 33.390625 146.542969 33.285156 C 147.074219 33.179688 147.613281 33.125 148.15625 33.125 C 148.699219 33.125 149.238281 33.179688 149.773438 33.285156 C 150.304688 33.390625 150.824219 33.546875 151.324219 33.753906 C 151.828125 33.964844 152.304688 34.21875 152.757812 34.519531 C 153.210938 34.824219 153.628906 35.167969 154.011719 35.550781 C 154.398438 35.933594 154.738281 36.351562 155.042969 36.804688 C 155.34375 37.257812 155.597656 37.734375 155.808594 38.238281 C 156.015625 38.738281 156.171875 39.257812 156.277344 39.789062 C 156.386719 40.324219 156.4375 40.863281 156.4375 41.40625 L 156.4375 82.8125 C 156.4375 83.355469 156.386719 83.894531 156.277344 84.429688 C 156.171875 84.960938 156.015625 85.480469 155.808594 85.980469 C 155.597656 86.484375 155.34375 86.960938 155.042969 87.414062 C 154.738281 87.867188 154.398438 88.285156 154.011719 88.667969 C 153.628906 89.054688 153.210938 89.394531 152.757812 89.699219 C 152.304688 90 151.828125 90.253906 151.324219 90.464844 C 150.824219 90.671875 150.304688 90.828125 149.773438 90.933594 C 149.238281 91.042969 148.699219 91.09375 148.15625 91.09375 Z M 148.15625 91.09375 " fill-opacity="1" fill-rule="nonzero"/><path fill="#9f85ec" d="M 239.25 198.75 C 237.992188 198.746094 236.792969 198.464844 235.660156 197.914062 C 234.53125 197.363281 233.574219 196.59375 232.792969 195.605469 L 199.667969 154.199219 C 199.382812 153.769531 199.140625 153.320312 198.9375 152.84375 C 198.738281 152.371094 198.582031 151.882812 198.472656 151.382812 C 198.363281 150.878906 198.300781 150.371094 198.285156 149.855469 C 198.269531 149.34375 198.300781 148.832031 198.382812 148.324219 C 198.460938 147.816406 198.589844 147.320312 198.761719 146.835938 C 198.933594 146.351562 199.148438 145.886719 199.410156 145.441406 C 199.667969 145 199.964844 144.582031 200.300781 144.195312 C 200.636719 143.804688 201.007812 143.449219 201.410156 143.128906 C 201.8125 142.808594 202.242188 142.53125 202.695312 142.289062 C 203.148438 142.050781 203.625 141.855469 204.113281 141.703125 C 204.605469 141.550781 205.105469 141.445312 205.617188 141.386719 C 206.128906 141.328125 206.640625 141.316406 207.152344 141.351562 C 207.664062 141.390625 208.171875 141.472656 208.667969 141.605469 C 209.164062 141.734375 209.644531 141.910156 210.109375 142.128906 C 210.574219 142.351562 211.015625 142.613281 211.433594 142.914062 C 211.847656 143.214844 212.230469 143.554688 212.585938 143.929688 L 245.710938 185.335938 C 246.191406 185.945312 246.578125 186.609375 246.875 187.324219 C 247.167969 188.042969 247.359375 188.789062 247.445312 189.558594 C 247.527344 190.332031 247.507812 191.101562 247.375 191.867188 C 247.246094 192.628906 247.011719 193.363281 246.675781 194.0625 C 246.335938 194.761719 245.910156 195.402344 245.394531 195.980469 C 244.878906 196.558594 244.292969 197.054688 243.636719 197.472656 C 242.980469 197.886719 242.277344 198.203125 241.53125 198.417969 C 240.789062 198.636719 240.027344 198.746094 239.25 198.75 Z M 239.25 198.75 " fill-opacity="1" fill-rule="nonzero"/><path fill="#9f85ec" d="M 206.125 198.75 C 205.347656 198.746094 204.589844 198.636719 203.84375 198.417969 C 203.097656 198.203125 202.398438 197.886719 201.742188 197.472656 C 201.085938 197.058594 200.5 196.558594 199.980469 195.980469 C 199.464844 195.402344 199.039062 194.761719 198.703125 194.0625 C 198.367188 193.363281 198.132812 192.628906 198 191.867188 C 197.871094 191.101562 197.847656 190.332031 197.933594 189.558594 C 198.019531 188.789062 198.207031 188.042969 198.503906 187.324219 C 198.796875 186.609375 199.183594 185.945312 199.667969 185.335938 L 232.792969 143.929688 C 233.109375 143.449219 233.472656 143.011719 233.878906 142.609375 C 234.289062 142.207031 234.734375 141.851562 235.21875 141.542969 C 235.699219 141.230469 236.210938 140.976562 236.746094 140.773438 C 237.28125 140.566406 237.832031 140.421875 238.398438 140.332031 C 238.964844 140.242188 239.535156 140.214844 240.109375 140.242188 C 240.679688 140.269531 241.242188 140.359375 241.796875 140.503906 C 242.351562 140.652344 242.886719 140.851562 243.398438 141.109375 C 243.910156 141.367188 244.390625 141.671875 244.839844 142.03125 C 245.289062 142.386719 245.695312 142.785156 246.0625 143.226562 C 246.429688 143.667969 246.746094 144.144531 247.011719 144.648438 C 247.28125 145.15625 247.492188 145.6875 247.652344 146.238281 C 247.808594 146.789062 247.90625 147.351562 247.949219 147.921875 C 247.988281 148.496094 247.96875 149.066406 247.894531 149.632812 C 247.816406 150.199219 247.679688 150.753906 247.488281 151.296875 C 247.296875 151.835938 247.050781 152.351562 246.75 152.839844 C 246.449219 153.328125 246.105469 153.78125 245.710938 154.199219 L 212.585938 195.605469 C 211.804688 196.59375 210.847656 197.363281 209.714844 197.914062 C 208.582031 198.464844 207.386719 198.746094 206.125 198.75 Z M 206.125 198.75 " fill-opacity="1" fill-rule="nonzero"/><path fill="#38004d" d="M 164.71875 231.875 L 148.15625 231.875 C 147.613281 231.875 147.074219 231.824219 146.542969 231.714844 C 146.007812 231.609375 145.488281 231.453125 144.988281 231.246094 C 144.484375 231.039062 144.007812 230.78125 143.554688 230.480469 C 143.105469 230.179688 142.683594 229.835938 142.300781 229.449219 C 141.917969 229.066406 141.574219 228.648438 141.269531 228.195312 C 140.96875 227.742188 140.714844 227.265625 140.503906 226.761719 C 140.296875 226.261719 140.140625 225.742188 140.035156 225.210938 C 139.929688 224.675781 139.875 224.136719 139.875 223.59375 C 139.875 223.050781 139.929688 222.511719 140.035156 221.980469 C 140.140625 221.445312 140.296875 220.929688 140.503906 220.425781 C 140.714844 219.921875 140.96875 219.445312 141.269531 218.992188 C 141.574219 218.542969 141.917969 218.125 142.300781 217.738281 C 142.683594 217.355469 143.105469 217.011719 143.554688 216.707031 C 144.007812 216.40625 144.484375 216.152344 144.988281 215.945312 C 145.488281 215.734375 146.007812 215.578125 146.542969 215.472656 C 147.074219 215.367188 147.613281 215.3125 148.15625 215.3125 L 164.71875 215.3125 C 165.261719 215.3125 165.800781 215.367188 166.335938 215.472656 C 166.867188 215.578125 167.386719 215.734375 167.886719 215.945312 C 168.390625 216.152344 168.867188 216.40625 169.320312 216.707031 C 169.773438 217.011719 170.191406 217.355469 170.574219 217.738281 C 170.960938 218.125 171.300781 218.542969 171.605469 218.992188 C 171.90625 219.445312 172.160156 219.921875 172.371094 220.425781 C 172.578125 220.929688 172.734375 221.445312 172.839844 221.980469 C 172.949219 222.511719 173 223.050781 173 223.59375 C 173 224.136719 172.949219 224.675781 172.839844 225.210938 C 172.734375 225.742188 172.578125 226.261719 172.371094 226.761719 C 172.160156 227.265625 171.90625 227.742188 171.605469 228.195312 C 171.300781 228.648438 170.960938 229.066406 170.574219 229.449219 C 170.191406 229.835938 169.773438 230.179688 169.320312 230.480469 C 168.867188 230.78125 168.390625 231.039062 167.886719 231.246094 C 167.386719 231.453125 166.867188 231.609375 166.335938 231.714844 C 165.800781 231.824219 165.261719 231.875 164.71875 231.875 Z M 164.71875 231.875 " fill-opacity="1" fill-rule="nonzero"/><path fill="#38004d" d="M 264.09375 231.875 L 197.84375 231.875 C 197.300781 231.875 196.761719 231.824219 196.230469 231.714844 C 195.695312 231.609375 195.175781 231.453125 194.675781 231.246094 C 194.171875 231.039062 193.695312 230.78125 193.242188 230.480469 C 192.792969 230.179688 192.371094 229.835938 191.988281 229.449219 C 191.605469 229.066406 191.261719 228.648438 190.957031 228.195312 C 190.65625 227.742188 190.402344 227.265625 190.195312 226.761719 C 189.984375 226.261719 189.828125 225.742188 189.722656 225.210938 C 189.617188 224.675781 189.5625 224.136719 189.5625 223.59375 C 189.5625 223.050781 189.617188 222.511719 189.722656 221.980469 C 189.828125 221.445312 189.984375 220.929688 190.195312 220.425781 C 190.402344 219.921875 190.65625 219.445312 190.957031 218.992188 C 191.261719 218.542969 191.605469 218.125 191.988281 217.738281 C 192.371094 217.355469 192.792969 217.011719 193.242188 216.707031 C 193.695312 216.40625 194.171875 216.152344 194.675781 215.945312 C 195.175781 215.734375 195.695312 215.578125 196.230469 215.472656 C 196.761719 215.367188 197.300781 215.3125 197.84375 215.3125 L 264.09375 215.3125 C 264.636719 215.3125 265.175781 215.367188 265.710938 215.472656 C 266.242188 215.578125 266.761719 215.734375 267.261719 215.945312 C 267.765625 216.152344 268.242188 216.40625 268.695312 216.707031 C 269.148438 217.011719 269.566406 217.355469 269.949219 217.738281 C 270.335938 218.125 270.679688 218.542969 270.980469 218.992188 C 271.28125 219.445312 271.539062 219.921875 271.746094 220.425781 C 271.953125 220.929688 272.109375 221.445312 272.214844 221.980469 C 272.324219 222.511719 272.375 223.050781 272.375 223.59375 C 272.375 224.136719 272.324219 224.675781 272.214844 225.210938 C 272.109375 225.742188 271.953125 226.261719 271.746094 226.761719 C 271.539062 227.265625 271.28125 227.742188 270.980469 228.195312 C 270.679688 228.648438 270.335938 229.066406 269.949219 229.449219 C 269.566406 229.835938 269.148438 230.179688 268.695312 230.480469 C 268.242188 230.78125 267.765625 231.039062 267.261719 231.246094 C 266.761719 231.453125 266.242188 231.609375 265.710938 231.714844 C 265.175781 231.824219 264.636719 231.875 264.09375 231.875 Z M 264.09375 231.875 " fill-opacity="1" fill-rule="nonzero"/></svg>