<svg xmlns="http://www.w3.org/2000/svg" xmlns:xlink="http://www.w3.org/1999/xlink" width="462" zoomAndPan="magnify" viewBox="0 0 346.5 265.499997" height="354" preserveAspectRatio="xMidYMid meet" version="1.0"><defs><clipPath id="8b764f93e8"><path d="M 78 56 L 267.984375 56 L 267.984375 265 L 78 265 Z M 78 56 " clip-rule="nonzero"/></clipPath></defs><path fill="#ffa000" d="M 203.085938 96.765625 L 176.75 121.292969 L 152.316406 71.953125 L 164.960938 43.578125 C 168.25 37.816406 173.378906 37.882812 176.585938 43.578125 Z M 203.085938 96.765625 " fill-opacity="1" fill-rule="nonzero"/><path fill="#f57f17" d="M 152.316406 71.953125 L 176.75 121.292969 L 78.332031 212.929688 Z M 152.316406 71.953125 " fill-opacity="1" fill-rule="nonzero"/><g clip-path="url(#8b764f93e8)"><path fill="#ffca28" d="M 231.890625 59.28125 C 236.59375 54.753906 241.460938 56.300781 242.703125 62.710938 L 268.324219 211.710938 L 183.402344 262.738281 C 180.445312 264.382812 172.550781 265.089844 172.550781 265.089844 C 172.550781 265.089844 165.363281 264.234375 162.625 262.621094 L 78.332031 212.929688 Z M 231.890625 59.28125 " fill-opacity="1" fill-rule="nonzero"/></g><path fill="#ffa000" d="M 152.316406 71.953125 L 78.339844 212.929688 L 111.285156 6.898438 C 112.503906 0.476562 116.152344 -0.140625 119.410156 5.523438 Z M 152.316406 71.953125 " fill-opacity="1" fill-rule="nonzero"/></svg>