<svg xmlns="http://www.w3.org/2000/svg" xmlns:xlink="http://www.w3.org/1999/xlink" width="462" zoomAndPan="magnify" viewBox="0 0 346.5 265.499997" height="354" preserveAspectRatio="xMidYMid meet" version="1.0"><defs><clipPath id="18f1cc60a2"><path d="M 79.046875 25 L 266.941406 25 L 266.941406 238.5 L 79.046875 238.5 Z M 79.046875 25 " clip-rule="nonzero"/></clipPath></defs><g clip-path="url(#18f1cc60a2)"><path fill="#e44d26" d="M 266.890625 25.578125 L 249.789062 217.179688 L 172.914062 238.492188 L 96.25 217.207031 L 79.167969 25.578125 L 266.886719 25.574219 L 266.894531 25.574219 Z M 266.890625 25.578125 " fill-opacity="1" fill-rule="nonzero"/></g><path fill="#f16529" d="M 173.03125 222.199219 L 235.152344 204.980469 L 249.765625 41.246094 L 173.03125 41.246094 Z M 173.03125 222.199219 " fill-opacity="1" fill-rule="nonzero"/><path fill="#ebebeb" d="M 139.785156 88.25 L 173.03125 88.25 L 173.03125 64.746094 L 114.101562 64.746094 L 114.664062 71.050781 L 120.4375 135.820312 L 173.03125 135.820312 L 173.03125 112.320312 L 141.933594 112.320312 Z M 139.785156 88.25 " fill-opacity="1" fill-rule="nonzero"/><path fill="#ebebeb" d="M 145.082031 147.570312 L 121.488281 147.570312 L 124.78125 184.476562 L 172.921875 197.84375 L 173.03125 197.8125 L 173.03125 173.359375 L 172.925781 173.386719 L 146.753906 166.316406 Z M 145.082031 147.570312 " fill-opacity="1" fill-rule="nonzero"/><path fill="#000000" d="M 96.632812 -26.5 L 108.578125 -26.5 L 108.578125 -14.699219 L 119.5 -14.699219 L 119.5 -26.5 L 131.445312 -26.5 L 131.445312 9.234375 L 119.503906 9.234375 L 119.503906 -2.730469 L 108.578125 -2.730469 L 108.578125 9.234375 L 96.632812 9.234375 Z M 96.632812 -26.5 " fill-opacity="1" fill-rule="nonzero"/><path fill="#000000" d="M 147.152344 -14.648438 L 136.636719 -14.648438 L 136.636719 -26.5 L 169.617188 -26.5 L 169.617188 -14.648438 L 159.09375 -14.648438 L 159.09375 9.234375 L 147.152344 9.234375 Z M 147.152344 -14.648438 " fill-opacity="1" fill-rule="nonzero"/><path fill="#000000" d="M 174.847656 -26.5 L 187.300781 -26.5 L 194.960938 -13.945312 L 202.613281 -26.5 L 215.070312 -26.5 L 215.070312 9.234375 L 203.179688 9.234375 L 203.179688 -8.476562 L 194.960938 4.226562 L 194.753906 4.226562 L 186.535156 -8.476562 L 186.535156 9.234375 L 174.847656 9.234375 Z M 174.847656 -26.5 " fill-opacity="1" fill-rule="nonzero"/><path fill="#000000" d="M 221.015625 -26.5 L 232.960938 -26.5 L 232.960938 -2.578125 L 249.757812 -2.578125 L 249.757812 9.234375 L 221.015625 9.234375 Z M 221.015625 -26.5 " fill-opacity="1" fill-rule="nonzero"/><path fill="#ffffff" d="M 172.949219 135.820312 L 201.890625 135.820312 L 199.160156 166.300781 L 172.949219 173.378906 L 172.949219 197.828125 L 221.125 184.476562 L 221.480469 180.503906 L 227.007812 118.628906 L 227.578125 112.320312 L 172.949219 112.320312 Z M 172.949219 135.820312 " fill-opacity="1" fill-rule="nonzero"/><path fill="#ffffff" d="M 172.949219 88.191406 L 172.949219 88.25 L 229.714844 88.25 L 230.183594 82.964844 L 231.257812 71.050781 L 231.820312 64.746094 L 172.949219 64.746094 Z M 172.949219 88.191406 " fill-opacity="1" fill-rule="nonzero"/></svg>