<svg xmlns="http://www.w3.org/2000/svg" xmlns:xlink="http://www.w3.org/1999/xlink" width="462" zoomAndPan="magnify" viewBox="0 0 346.5 265.499997" height="354" preserveAspectRatio="xMidYMid meet" version="1.0"><defs><g/></defs><g fill="#00b5f8" fill-opacity="1"><g transform="translate(13.878261, 155.706759)"><g><path d="M 32.140625 -48.0625 C 35.117188 -48.0625 37.769531 -47.375 40.09375 -46 C 42.425781 -44.625 44.242188 -42.738281 45.546875 -40.34375 C 46.847656 -37.945312 47.5 -35.257812 47.5 -32.28125 L 47.5 -31.359375 C 47.5 -28.378906 46.847656 -25.675781 45.546875 -23.25 C 44.242188 -20.832031 42.425781 -18.9375 40.09375 -17.5625 C 37.769531 -16.195312 35.117188 -15.515625 32.140625 -15.515625 L 20.609375 -15.515625 L 20.609375 0 L 5.171875 0 L 5.171875 -48.0625 Z M 20.609375 -26.75 L 26.96875 -26.75 C 28.59375 -26.75 29.8125 -27.164062 30.625 -28 C 31.445312 -28.84375 31.859375 -29.988281 31.859375 -31.4375 L 31.859375 -32 C 31.859375 -33.488281 31.445312 -34.640625 30.625 -35.453125 C 29.8125 -36.265625 28.59375 -36.671875 26.96875 -36.671875 L 20.609375 -36.671875 Z M 20.609375 -26.75 "/></g></g></g><g fill="#00b5f8" fill-opacity="1"><g transform="translate(64.320499, 155.706759)"><g><path d="M 26.609375 -37.796875 C 27.679688 -37.796875 28.632812 -37.664062 29.46875 -37.40625 C 30.3125 -37.15625 30.734375 -37.003906 30.734375 -36.953125 L 30.734375 -25.28125 L 26.265625 -25.28125 C 23.378906 -25.28125 21.296875 -24.535156 20.015625 -23.046875 C 18.734375 -21.554688 18.09375 -19.347656 18.09375 -16.421875 L 18.09375 0 L 4.1875 0 L 4.1875 -36.890625 L 15.578125 -36.890625 L 16.484375 -31.296875 C 17.328125 -33.441406 18.65625 -35.0625 20.46875 -36.15625 C 22.28125 -37.25 24.328125 -37.796875 26.609375 -37.796875 Z M 26.609375 -37.796875 "/></g></g></g><g fill="#00b5f8" fill-opacity="1"><g transform="translate(95.340387, 155.706759)"><g><path d="M 23.265625 -37.71875 C 29.734375 -37.71875 34.816406 -36.078125 38.515625 -32.796875 C 42.222656 -29.515625 44.078125 -24.726562 44.078125 -18.4375 C 44.078125 -12.15625 42.222656 -7.367188 38.515625 -4.078125 C 34.816406 -0.796875 29.734375 0.84375 23.265625 0.84375 C 16.785156 0.84375 11.707031 -0.785156 8.03125 -4.046875 C 4.351562 -7.304688 2.515625 -12.101562 2.515625 -18.4375 C 2.515625 -24.769531 4.351562 -29.566406 8.03125 -32.828125 C 11.707031 -36.085938 16.785156 -37.71875 23.265625 -37.71875 Z M 23.265625 -28.296875 C 18.703125 -28.296875 16.421875 -25.664062 16.421875 -20.40625 L 16.421875 -16.421875 C 16.421875 -11.203125 18.703125 -8.59375 23.265625 -8.59375 C 27.867188 -8.59375 30.171875 -11.203125 30.171875 -16.421875 L 30.171875 -20.40625 C 30.171875 -25.664062 27.867188 -28.296875 23.265625 -28.296875 Z M 23.265625 -28.296875 "/></g></g></g><g fill="#00b5f8" fill-opacity="1"><g transform="translate(141.940081, 155.706759)"><g><path d="M 13.96875 0 L 0 -36.890625 L 14.953125 -36.890625 L 21.71875 -13.90625 L 22.21875 -13.90625 L 28.984375 -36.890625 L 42.6875 -36.890625 L 28.578125 0 Z M 13.96875 0 "/></g></g></g><g fill="#00b5f8" fill-opacity="1"><g transform="translate(184.627358, 155.706759)"><g><path d="M 4.6875 -41.21875 L 4.6875 -50.640625 L 18.578125 -50.640625 L 18.578125 -41.21875 Z M 4.6875 0 L 4.6875 -36.890625 L 18.578125 -36.890625 L 18.578125 0 Z M 4.6875 0 "/></g></g></g><g fill="#00b5f8" fill-opacity="1"><g transform="translate(207.892286, 155.706759)"><g><path d="M 31.015625 0 L 29.828125 -5.234375 C 27.128906 -1.179688 23.21875 0.84375 18.09375 0.84375 C 13.113281 0.84375 9.269531 -0.785156 6.5625 -4.046875 C 3.863281 -7.304688 2.515625 -12.128906 2.515625 -18.515625 C 2.515625 -24.847656 3.863281 -29.628906 6.5625 -32.859375 C 9.269531 -36.097656 13.113281 -37.71875 18.09375 -37.71875 C 22.332031 -37.71875 25.78125 -36.300781 28.4375 -33.46875 L 28.4375 -50.640625 L 42.328125 -50.640625 L 42.328125 0 Z M 22.421875 -27.453125 C 18.421875 -27.453125 16.421875 -25.054688 16.421875 -20.265625 L 16.421875 -16.5625 C 16.421875 -11.8125 18.421875 -9.4375 22.421875 -9.4375 C 24.472656 -9.4375 26.007812 -10.15625 27.03125 -11.59375 C 28.0625 -13.039062 28.578125 -14.925781 28.578125 -17.25 L 28.578125 -19.5625 C 28.578125 -21.882812 28.0625 -23.78125 27.03125 -25.25 C 26.007812 -26.71875 24.472656 -27.453125 22.421875 -27.453125 Z M 22.421875 -27.453125 "/></g></g></g><g fill="#00b5f8" fill-opacity="1"><g transform="translate(254.491979, 155.706759)"><g><path d="M 23.265625 -37.71875 C 30.015625 -37.71875 35.171875 -36.132812 38.734375 -32.96875 C 42.296875 -29.800781 44.078125 -24.957031 44.078125 -18.4375 L 44.078125 -16.0625 L 16.421875 -16.0625 C 16.421875 -13.40625 17.015625 -11.398438 18.203125 -10.046875 C 19.390625 -8.703125 21.265625 -8.03125 23.828125 -8.03125 C 26.148438 -8.03125 27.859375 -8.519531 28.953125 -9.5 C 30.046875 -10.476562 30.59375 -11.78125 30.59375 -13.40625 L 44.078125 -13.40625 C 44.078125 -8.9375 42.375 -5.441406 38.96875 -2.921875 C 35.570312 -0.410156 30.613281 0.84375 24.09375 0.84375 C 17.25 0.84375 11.941406 -0.75 8.171875 -3.9375 C 4.398438 -7.132812 2.515625 -11.96875 2.515625 -18.4375 C 2.515625 -24.769531 4.351562 -29.566406 8.03125 -32.828125 C 11.707031 -36.085938 16.785156 -37.71875 23.265625 -37.71875 Z M 23.828125 -28.859375 C 19.441406 -28.859375 16.992188 -26.785156 16.484375 -22.640625 L 30.046875 -22.640625 C 30.046875 -24.546875 29.492188 -26.054688 28.390625 -27.171875 C 27.296875 -28.296875 25.773438 -28.859375 23.828125 -28.859375 Z M 23.828125 -28.859375 "/></g></g></g><g fill="#00b5f8" fill-opacity="1"><g transform="translate(301.091673, 155.706759)"><g><path d="M 26.609375 -37.796875 C 27.679688 -37.796875 28.632812 -37.664062 29.46875 -37.40625 C 30.3125 -37.15625 30.734375 -37.003906 30.734375 -36.953125 L 30.734375 -25.28125 L 26.265625 -25.28125 C 23.378906 -25.28125 21.296875 -24.535156 20.015625 -23.046875 C 18.734375 -21.554688 18.09375 -19.347656 18.09375 -16.421875 L 18.09375 0 L 4.1875 0 L 4.1875 -36.890625 L 15.578125 -36.890625 L 16.484375 -31.296875 C 17.328125 -33.441406 18.65625 -35.0625 20.46875 -36.15625 C 22.28125 -37.25 24.328125 -37.796875 26.609375 -37.796875 Z M 26.609375 -37.796875 "/></g></g></g></svg>