<svg xmlns="http://www.w3.org/2000/svg" xmlns:xlink="http://www.w3.org/1999/xlink" width="462" zoomAndPan="magnify" viewBox="0 0 346.5 265.499997" height="354" preserveAspectRatio="xMidYMid meet" version="1.0"><defs><g/></defs><g fill="#00b5f8" fill-opacity="1"><g transform="translate(11.88397, 155.706759)"><g><path d="M 41.28125 0 L 35.0625 -29.265625 L 34.796875 -29.265625 L 28.578125 0 L 11.59375 0 L 0.34375 -48.0625 L 16.421875 -48.0625 L 21.9375 -20.8125 L 22.21875 -20.8125 L 27.671875 -48.0625 L 42.890625 -48.0625 L 48.6875 -20.8125 L 48.96875 -20.8125 L 54.140625 -48.0625 L 69.515625 -48.0625 L 58.265625 0 Z M 41.28125 0 "/></g></g></g><g fill="#00b5f8" fill-opacity="1"><g transform="translate(81.748569, 155.706759)"><g><path d="M 23.265625 -37.71875 C 30.015625 -37.71875 35.171875 -36.132812 38.734375 -32.96875 C 42.296875 -29.800781 44.078125 -24.957031 44.078125 -18.4375 L 44.078125 -16.0625 L 16.421875 -16.0625 C 16.421875 -13.40625 17.015625 -11.398438 18.203125 -10.046875 C 19.390625 -8.703125 21.265625 -8.03125 23.828125 -8.03125 C 26.148438 -8.03125 27.859375 -8.519531 28.953125 -9.5 C 30.046875 -10.476562 30.59375 -11.78125 30.59375 -13.40625 L 44.078125 -13.40625 C 44.078125 -8.9375 42.375 -5.441406 38.96875 -2.921875 C 35.570312 -0.410156 30.613281 0.84375 24.09375 0.84375 C 17.25 0.84375 11.941406 -0.75 8.171875 -3.9375 C 4.398438 -7.132812 2.515625 -11.96875 2.515625 -18.4375 C 2.515625 -24.769531 4.351562 -29.566406 8.03125 -32.828125 C 11.707031 -36.085938 16.785156 -37.71875 23.265625 -37.71875 Z M 23.828125 -28.859375 C 19.441406 -28.859375 16.992188 -26.785156 16.484375 -22.640625 L 30.046875 -22.640625 C 30.046875 -24.546875 29.492188 -26.054688 28.390625 -27.171875 C 27.296875 -28.296875 25.773438 -28.859375 23.828125 -28.859375 Z M 23.828125 -28.859375 "/></g></g></g><g fill="#00b5f8" fill-opacity="1"><g transform="translate(128.348262, 155.706759)"><g><path d="M 18.15625 -33.46875 C 20.8125 -36.300781 24.257812 -37.71875 28.5 -37.71875 C 33.488281 -37.71875 37.332031 -36.097656 40.03125 -32.859375 C 42.726562 -29.628906 44.078125 -24.847656 44.078125 -18.515625 C 44.078125 -12.128906 42.726562 -7.304688 40.03125 -4.046875 C 37.332031 -0.785156 33.488281 0.84375 28.5 0.84375 C 23.375 0.84375 19.460938 -1.179688 16.765625 -5.234375 L 15.578125 0 L 4.265625 0 L 4.265625 -50.640625 L 18.15625 -50.640625 Z M 24.171875 -27.453125 C 22.117188 -27.453125 20.582031 -26.71875 19.5625 -25.25 C 18.539062 -23.78125 18.03125 -21.882812 18.03125 -19.5625 L 18.03125 -17.25 C 18.03125 -14.925781 18.539062 -13.039062 19.5625 -11.59375 C 20.582031 -10.15625 22.117188 -9.4375 24.171875 -9.4375 C 28.171875 -9.4375 30.171875 -11.8125 30.171875 -16.5625 L 30.171875 -20.265625 C 30.171875 -25.054688 28.171875 -27.453125 24.171875 -27.453125 Z M 24.171875 -27.453125 "/></g></g></g><g fill="#00b5f8" fill-opacity="1"><g transform="translate(174.947956, 155.706759)"><g><path d="M 50.78125 -33.328125 C 50.78125 -30.390625 49.988281 -27.734375 48.40625 -25.359375 C 46.820312 -22.984375 44.519531 -21.238281 41.5 -20.125 L 52.1875 0 L 34.859375 0 L 26.34375 -17.53125 L 20.609375 -17.53125 L 20.609375 0 L 5.171875 0 L 5.171875 -48.0625 L 34.578125 -48.0625 C 38.023438 -48.0625 40.96875 -47.394531 43.40625 -46.0625 C 45.851562 -44.738281 47.691406 -42.945312 48.921875 -40.6875 C 50.160156 -38.4375 50.78125 -35.984375 50.78125 -33.328125 Z M 35.0625 -32.6875 C 35.0625 -33.945312 34.640625 -34.992188 33.796875 -35.828125 C 32.960938 -36.671875 31.941406 -37.09375 30.734375 -37.09375 L 20.609375 -37.09375 L 20.609375 -28.21875 L 30.734375 -28.21875 C 31.941406 -28.21875 32.960938 -28.648438 33.796875 -29.515625 C 34.640625 -30.378906 35.0625 -31.4375 35.0625 -32.6875 Z M 35.0625 -32.6875 "/></g></g></g><g fill="#00b5f8" fill-opacity="1"><g transform="translate(229.302632, 155.706759)"><g><path d="M 32.828125 -35.765625 L 32.828125 0 L 17.390625 0 L 17.390625 -35.765625 L 1.609375 -35.765625 L 1.609375 -48.0625 L 48.546875 -48.0625 L 48.546875 -35.765625 Z M 32.828125 -35.765625 "/></g></g></g><g fill="#00b5f8" fill-opacity="1"><g transform="translate(279.744882, 155.706759)"><g><path d="M 28.078125 -48.90625 C 35.203125 -48.90625 40.835938 -47.125 44.984375 -43.5625 C 49.128906 -40 51.203125 -34.910156 51.203125 -28.296875 L 36.46875 -28.296875 C 36.46875 -31.085938 35.734375 -33.296875 34.265625 -34.921875 C 32.796875 -36.554688 30.710938 -37.375 28.015625 -37.375 C 24.890625 -37.375 22.59375 -36.394531 21.125 -34.4375 C 19.664062 -32.476562 18.9375 -29.753906 18.9375 -26.265625 L 18.9375 -21.796875 C 18.9375 -18.347656 19.664062 -15.632812 21.125 -13.65625 C 22.59375 -11.675781 24.84375 -10.6875 27.875 -10.6875 C 30.851562 -10.6875 33.109375 -11.453125 34.640625 -12.984375 C 36.179688 -14.523438 36.953125 -16.691406 36.953125 -19.484375 L 51.203125 -19.484375 C 51.203125 -12.921875 49.1875 -7.890625 45.15625 -4.390625 C 41.132812 -0.898438 35.441406 0.84375 28.078125 0.84375 C 19.878906 0.84375 13.671875 -1.25 9.453125 -5.4375 C 5.242188 -9.632812 3.140625 -15.832031 3.140625 -24.03125 C 3.140625 -32.226562 5.242188 -38.421875 9.453125 -42.609375 C 13.671875 -46.804688 19.878906 -48.90625 28.078125 -48.90625 Z M 28.078125 -48.90625 "/></g></g></g></svg>